<svg width="154" height="77" viewBox="0 0 154 77" fill="none" xmlns="http://www.w3.org/2000/svg">
<rect width="77" height="77" fill="#14213D"/>
<rect x="77" width="77" height="77" fill="white"/>
<path d="M63.856 20.056C55.0667 19.6293 46.6187 20.312 38.512 22.104C30.4053 23.896 22.384 26.328 14.448 29.4C12.4 30.168 10.8213 30.0827 9.712 29.144C8.688 28.2053 8.176 27.2667 8.176 26.328C8.77333 24.7067 9.84 23.384 11.376 22.36C28.8693 13.8267 46.3627 10.6693 63.856 12.888C64.7093 13.144 65.392 13.784 65.904 14.808C66.5013 15.7467 66.7147 16.5573 66.544 17.24C66.3733 18.0933 66.1173 18.8187 65.776 19.416C65.4347 19.928 64.7947 20.1413 63.856 20.056ZM45.68 64.728C45.68 65.6667 45.3387 66.52 44.656 67.288C44.0587 67.9707 43.2907 68.3973 42.352 68.568C40.6453 68.824 39.536 68.5253 39.024 67.672C38.512 66.8187 38.2133 65.8373 38.128 64.728C38.0427 58.7547 37.9147 52.824 37.744 46.936C37.6587 40.9627 37.4027 34.9893 36.976 29.016C36.976 28.6747 36.9333 28.2907 36.848 27.864C36.7627 27.352 36.7627 26.8827 36.848 26.456C36.9333 25.944 37.104 25.5173 37.36 25.176C37.7013 24.8347 38.2133 24.5787 38.896 24.408C40.8587 24.0667 42.2667 24.408 43.12 25.432C43.9733 26.3707 44.4 27.3093 44.4 28.248C45.0827 34.392 45.5093 40.4933 45.68 46.552C45.8507 52.6107 45.8507 58.6693 45.68 64.728Z" fill="white"/>
<path d="M108.328 72.28C107.475 71.9387 106.579 71.2987 105.64 70.36C104.787 69.4213 104.275 68.6107 104.104 67.928C103.677 66.2213 103.208 64.1307 102.696 61.656C102.184 59.1813 101.672 56.536 101.16 53.72C100.648 50.904 100.136 48.0453 99.624 45.144C99.1973 42.1573 98.7707 39.3413 98.344 36.696C97.9173 33.9653 97.576 31.5333 97.32 29.4C97.064 27.2667 96.8933 25.56 96.808 24.28C96.808 22.9147 97.2773 22.1467 98.216 21.976C100.435 21.72 102.013 22.5307 102.952 24.408C103.379 25.944 103.848 27.6933 104.36 29.656C104.872 31.6187 105.384 33.752 105.896 36.056C107.944 35.288 109.779 34.3067 111.4 33.112C113.021 31.9173 114.344 30.6373 115.368 29.272C116.477 27.8213 117.245 26.3707 117.672 24.92C118.184 23.384 118.269 21.8907 117.928 20.44C117.501 18.8187 116.307 17.624 114.344 16.856C112.381 16.088 110.163 15.704 107.688 15.704C104.275 15.704 101.203 16.344 98.472 17.624C95.8267 18.8187 93.3947 20.312 91.176 22.104C90.152 22.872 89.0427 23.128 87.848 22.872C86.568 22.5307 85.7147 21.72 85.288 20.44C85.288 19.2453 85.5013 18.2213 85.928 17.368C86.3547 16.5147 86.9093 15.7467 87.592 15.064C90.2373 12.3333 93.352 10.4133 96.936 9.30399C100.605 8.19466 104.445 7.64 108.456 7.64C111.699 7.64 114.813 8.152 117.8 9.17599C120.872 10.2 123.475 12.0347 125.608 14.68C126.632 16.3867 127.144 18.1787 127.144 20.056C127.229 21.9333 126.973 23.768 126.376 25.56C125.779 27.352 124.925 29.0587 123.816 30.68C122.792 32.3013 121.725 33.7093 120.616 34.904C122.749 34.7333 124.925 34.9467 127.144 35.544C129.363 36.056 131.325 36.9947 133.032 38.36C134.824 39.64 136.275 41.3467 137.384 43.48C138.493 45.6133 139.048 48.1733 139.048 51.16C139.048 54.5733 138.28 57.688 136.744 60.504C135.293 63.32 133.331 65.7093 130.856 67.672C128.467 69.6347 125.693 71.1707 122.536 72.28C119.464 73.3893 116.264 73.944 112.936 73.944C111.485 73.944 110.333 73.5173 109.48 72.664C109.053 72.664 108.669 72.536 108.328 72.28ZM107.816 45.4C108.499 48.728 109.139 52.184 109.736 55.768C110.333 59.352 110.973 62.936 111.656 66.52H112.168C114.045 66.52 116.093 66.1787 118.312 65.496C120.616 64.8133 122.749 63.832 124.712 62.552C126.675 61.1867 128.296 59.5653 129.576 57.688C130.856 55.7253 131.453 53.5493 131.368 51.16C130.941 49.0267 129.96 47.4053 128.424 46.296C126.888 45.1867 125.011 44.4613 122.792 44.12C120.659 43.7787 118.269 43.7787 115.624 44.12C113.064 44.376 110.461 44.8027 107.816 45.4Z" fill="#14213D"/>
</svg>
